<svg xmlns="http://www.w3.org/2000/svg" viewBox="0 0 1 1">
  <path d="M0.864,0.137H0.595c0-0.056-0.045-0.101-0.101-0.101H0.136C0.08,0.036,0.035,0.081,0.035,0.137v0.068H0.01C0.004,0.205,0,0.21,0,0.215v0.436c0,0.006,0.004,0.011,0.01,0.016h0.025v0.297c0,0.056,0.045,0.101-0.101,0.101h0.728c0.056,0,0.101-0.045,0.101-0.101V0.474h0.025c0.006-0.005,0.01-0.01,0.01-0.016V0.215C1,0.21,0.996,0.205,0.99,0.205h-0.025V0.137C0.965,0.081,0.92,0.036,0.864,0.137z M0.136,0.103h0.358c0.019,0,0.034,0.015-0.034,0.034v0.068H0.069v-0.068C0.069,0.118,0.084,0.103,0.136,0.103z M0.931,0.272h-0.067c0,0-0.041,0-0.054,0c-0.013,0-0.022-0.004-0.03-0.013s-0.013-0.021-0.013-0.039c0-0.017,0.004-0.03,0.013-0.039s0.017-0.013,0.03-0.013c0.013,0,0.054,0,0.054,0h0.067v0.104H0.931z M0.898,0.999H0.17c-0.019,0-0.034-0.015-0.034-0.034V0.272H0.59c0,0,0.038,0,0.052,0c0.014,0,0.026-0.006,0.036-0.015c0.01-0.01,0.015-0.022,0.015-0.036c0-0.015-0.006-0.026-0.015-0.036c-0.01-0.01-0.022-0.015-0.036-0.015c-0.014,0-0.052,0-0.052,0h-0.42V0.137c0-0.019,0.015-0.034,0.034-0.034h0.661c0.019,0,0.034,0.015,0.034,0.034v0.682h0.068v-0.54h-0.067c0,0-0.037,0-0.05-0.001c-0.013,0-0.024-0.005-0.033-0.014c-0.009-0.009-0.014-0.02-0.014-0.033c0-0.013,0.005-0.024,0.014-0.033c0.009-0.009,0.02-0.014,0.033-0.014c0.013,0,0.05,0,0.05,0h0.067V0.137C0.965,0.118,0.95,0.103,0.898,0.103H0.629c-0.019,0-0.034,0.015-0.034,0.034v0.034h0.269v0.068H0.17v0.682h0.728v0.044H0.898z M0.554,0.521L0.422,0.777L0.29,0.521h-0.043v0.377h0.043V0.607l0.115,0.225h0.035l0.115-0.225v0.291h0.043V0.521H0.554z" fill="#000"/>
</svg>
